<svg width="36" height="36" viewBox="0 0 36 36" fill="none" xmlns="http://www.w3.org/2000/svg">
<path fill-rule="evenodd" clip-rule="evenodd" d="M8.09436 0.823287C14.6277 0.09992 21.2209 0.09992 27.7542 0.823287C31.3715 1.22873 34.2899 4.0774 34.7143 7.70739C35.4885 14.3339 35.4885 21.0279 34.7143 27.6544C34.2899 31.2844 31.3715 34.1331 27.7542 34.5385C21.2209 35.2619 14.6277 35.2619 8.09436 34.5385C4.47704 34.1331 1.55868 31.2844 1.13423 27.6544C0.360204 21.0286 0.360204 14.3353 1.13423 7.7095C1.34892 5.94597 2.15287 4.30661 3.41577 3.05712C4.67867 1.80764 6.32652 1.02124 8.09225 0.825398M17.9243 7.13723C18.3443 7.13723 18.7471 7.30409 19.0442 7.60111C19.3412 7.89812 19.508 8.30096 19.508 8.721V16.0971H26.8842C27.3042 16.0971 27.707 16.264 28.0041 16.561C28.3011 16.858 28.4679 17.2609 28.4679 17.6809C28.4679 18.1009 28.3011 18.5038 28.0041 18.8008C27.707 19.0978 27.3042 19.2647 26.8842 19.2647H19.508V26.6408C19.508 27.0608 19.3412 27.4637 19.0442 27.7607C18.7471 28.0577 18.3443 28.2246 17.9243 28.2246C17.5042 28.2246 17.1014 28.0577 16.8044 27.7607C16.5074 27.4637 16.3405 27.0608 16.3405 26.6408V19.2647H8.96437C8.54433 19.2647 8.1415 19.0978 7.84448 18.8008C7.54747 18.5038 7.38061 18.1009 7.38061 17.6809C7.38061 17.2609 7.54747 16.858 7.84448 16.561C8.1415 16.264 8.54433 16.0971 8.96437 16.0971H16.3405V8.721C16.3405 8.30096 16.5074 7.89812 16.8044 7.60111C17.1014 7.30409 17.5042 7.13723 17.9243 7.13723Z" fill="black"/>
</svg>
